<svg xmlns="http://www.w3.org/2000/svg" viewBox="0 0 200 320">
  <ellipse cx="100" cy="300" rx="42" ry="12" fill="#5A454B" opacity="0.15"/>
  <ellipse cx="100" cy="250" rx="38" ry="48" fill="#F4B6C7" stroke="#6B4C52" stroke-width="6" stroke-linecap="round" stroke-linejoin="round"/>
  <circle cx="100" cy="130" r="72" fill="#F4B6C7" stroke="#6B4C52" stroke-width="6" stroke-linecap="round" stroke-linejoin="round"/>
  <ellipse cx="100" cy="148" rx="52" ry="38" fill="#F9CEDA" opacity="0.45"/>
  <circle cx="72" cy="118" r="10" fill="#5A454B"/>
  <circle cx="128" cy="118" r="10" fill="#5A454B"/>
  <circle cx="75" cy="115" r="3" fill="#FFF7ED"/>
  <circle cx="131" cy="115" r="3" fill="#FFF7ED"/>
  <ellipse cx="58" cy="148" rx="12" ry="8" fill="#E98FA9" opacity="0.55"/>
  <ellipse cx="142" cy="148" rx="12" ry="8" fill="#E98FA9" opacity="0.55"/>
  <path d="M82 162 Q100 176 118 162" fill="none" stroke="#6B4C52" stroke-width="4" stroke-linecap="round"/>
  <path d="M88 168 Q100 174 112 168" fill="none" stroke="#DB665B" stroke-width="3" stroke-linecap="round" opacity="0.5"/>
  <path d="M78 78 Q100 58 122 78" fill="#F4B6C7" stroke="#6B4C52" stroke-width="5" stroke-linecap="round"/>
  <circle cx="78" cy="82" r="8" fill="#F4B6C7" stroke="#6B4C52" stroke-width="4"/>
  <circle cx="122" cy="82" r="8" fill="#F4B6C7" stroke="#6B4C52" stroke-width="4"/>
  <ellipse cx="100" cy="268" rx="18" ry="10" fill="#FFF7ED" stroke="#6B4C52" stroke-width="4"/>
</svg>
